<?xml version="1.0" encoding="UTF-8" standalone="no"?>
<!-- Created with Inkscape (http://www.inkscape.org/) -->

<svg
   xmlns:dc="http://purl.org/dc/elements/1.1/"
   xmlns:cc="http://creativecommons.org/ns#"
   xmlns:rdf="http://www.w3.org/1999/02/22-rdf-syntax-ns#"
   xmlns:svg="http://www.w3.org/2000/svg"
   xmlns="http://www.w3.org/2000/svg"
   xmlns:sodipodi="http://sodipodi.sourceforge.net/DTD/sodipodi-0.dtd"
   xmlns:inkscape="http://www.inkscape.org/namespaces/inkscape"
   id="svg4292"
   version="1.1"
   inkscape:version="0.91 r13725"
   xml:space="preserve"
   width="500"
   height="166"
   viewBox="0 0 500 166"
   sodipodi:docname="freepress.svg"><metadata
     id="metadata4298"><rdf:RDF><cc:Work
         rdf:about=""><dc:format>image/svg+xml</dc:format><dc:type
           rdf:resource="http://purl.org/dc/dcmitype/StillImage" /><dc:title></dc:title></cc:Work></rdf:RDF></metadata><defs
     id="defs4296"><clipPath
       clipPathUnits="userSpaceOnUse"
       id="clipPath4310"><path
         d="m 0,1505.167 3456,0 L 3456,0 0,0 0,1505.167 Z"
         id="path4312"
         inkscape:connector-curvature="0" /></clipPath></defs><sodipodi:namedview
     pagecolor="#ffffff"
     bordercolor="#000"
     borderopacity="1"
     objecttolerance="10"
     gridtolerance="10"
     guidetolerance="10"
     inkscape:pageopacity="0"
     inkscape:pageshadow="2"
     inkscape:window-width="1280"
     inkscape:window-height="744"
     id="namedview4294"
     showgrid="false"
     inkscape:zoom="1.2296296"
     inkscape:cx="368.96664"
     inkscape:cy="173.81733"
     inkscape:window-x="-4"
     inkscape:window-y="-4"
     inkscape:window-maximized="1"
     inkscape:current-layer="g4300" /><g
     id="g4300"
     inkscape:groupmode="layer"
     inkscape:label="fp-url"
     transform="matrix(1.25,0,0,-1.25,0,166)"><g
       id="g4302"
       transform="matrix(0.12789522,0,0,0.12789522,270.66655,111.29894)"><path
         d="m 0,0 -14.96,-140.983 162.436,-3.821 -174.53,-89.388 -22.265,-142.873 -92.931,85.762 -176.17,-84.517 117.118,142.422 -86.589,90.611 165.353,2.254 L 0,0 Z"
         style="fill:#000;fill-opacity:1;fill-rule:nonzero;stroke:none"
         id="path4304"
         inkscape:connector-curvature="0" /></g><g
       id="g4314"
       transform="matrix(0.12789522,0,0,0.12789522,379.22923,91.442469)"><path
         d="m 0,0 c -92.222,-220.479 -408.561,-424.259 -735.114,-484.739 366.333,0.193 775.967,225.586 865.473,484.696 C 199.789,200.949 23.748,314.568 -213.729,314.761 -36.378,288.02 73.99,176.933 0,0"
         style="fill:#000;fill-opacity:1;fill-rule:nonzero;stroke:none"
         id="path4316"
         inkscape:connector-curvature="0" /></g><g
       id="g4318"
       transform="matrix(0.12789522,0,0,0.12789522,341.73557,88.862336)"><path
         d="m 0,0 c -75.879,-125.488 -258.659,-237.241 -442.138,-279.198 201.55,14.851 429.002,136.347 510.795,279.134 72.112,125.96 -5.065,211.829 -150.996,221.4 C 23.275,194.016 67.819,112.181 0,0"
         style="fill:#000;fill-opacity:1;fill-rule:nonzero;stroke:none"
         id="path4320"
         inkscape:connector-curvature="0" /></g><g
       id="g4322"
       transform="matrix(0.12789522,0,0,0.12789522,310.08575,90.800179)"><path
         d="M 0,0 C -39.823,-53.354 -118.685,-99.991 -195.25,-119.457 -112.567,-110.1 -16.73,-59.814 27.021,0 68.323,56.423 46.486,99.304 -15.259,106.902 27.761,90.999 37.74,50.715 0,0"
         style="fill:#000;fill-opacity:1;fill-rule:nonzero;stroke:none"
         id="path4324"
         inkscape:connector-curvature="0" /></g><g
       id="g4326"
       transform="matrix(0.12789522,0,0,0.12789522,2.6002883,19.655711)"><path
         d="m 0,0 16.869,1.717 c 22.664,1.781 22.664,3.519 22.664,54.041 l 0,171.373 c -13.951,1.761 -34.876,4.056 -45.339,6.997 l 0,12.769 c 5.226,0.602 34.307,2.898 45.339,4.658 l 0,14.487 c 0,68.549 41.797,148.173 123.717,148.173 23.254,0 45.864,-7.555 53.472,-17.405 -1.791,-12.234 -6.406,-25.004 -16.868,-38.353 l -4.036,0 c -8.756,9.851 -26.162,28.459 -56.96,28.459 -44.737,0 -48.804,-62.176 -48.804,-102.889 l 0,-32.472 c 19.165,0 56.917,-2.361 74.913,-4.658 l 0,-12.769 c -27.847,-4.636 -46.454,-6.396 -74.913,-6.997 l 0,-171.373 c 0,-51.122 0,-52.861 22.675,-54.041 L 139.449,0 l 0,-12.77 L 0,-12.77 0,0 Z"
         style="fill:#000;fill-opacity:1;fill-rule:nonzero;stroke:none"
         id="path4328"
         inkscape:connector-curvature="0" /></g><g
       id="g4330"
       transform="matrix(0.12789522,0,0,0.12789522,25.111024,19.655711)"><path
         d="m 0,0 13.961,1.717 c 20.325,2.36 25.55,2.36 25.55,42.408 l 0,113.319 c 0,59.836 0,72.584 -16.268,72.584 -4.614,0 -9.282,-2.296 -13.929,-3.433 l -5.204,-1.782 -4.679,13.972 c 29.06,10.409 67.981,21.419 84.26,21.419 2.274,-9.829 4.056,-21.998 4.056,-37.708 8.681,9.293 33.685,37.708 63.313,37.708 18.017,0 36.592,-12.705 44.136,-17.363 -8.145,-13.949 -16.268,-22.685 -29.628,-33.136 -8.112,2.94 -39.49,12.791 -47.624,12.791 -18.597,0 -27.901,-13.972 -27.901,-22.686 l 0,-155.685 c 0,-40.048 4.636,-40.048 35.466,-42.408 L 138.858,0 l 0,-12.77 L 0,-12.77 0,0 Z"
         style="fill:#000;fill-opacity:1;fill-rule:nonzero;stroke:none"
         id="path4332"
         inkscape:connector-curvature="0" /></g><g
       id="g4334"
       transform="matrix(0.12789522,0,0,0.12789522,80.908884,21.069312)"><path
         d="m 0,0 c -9.314,-8.735 -48.783,-32.601 -101.644,-32.601 -73.163,0 -133.021,48.848 -133.021,131.347 0,98.21 67.959,150.427 134.76,150.427 77.853,0 94.679,-56.317 102.266,-87.694 -66.242,-32.536 -133.654,-50.521 -183.596,-62.153 2.339,-36.013 30.186,-104.541 108.64,-104.541 35.412,0 57.518,14.465 65.598,18.521 L 0,0 Z m -181.235,124.908 c 41.829,7.533 90.633,19.681 131.304,33.052 -8.166,36.056 -22.664,70.91 -66.854,70.91 -49.362,0 -64.45,-61.596 -64.45,-103.962"
         style="fill:#000;fill-opacity:1;fill-rule:nonzero;stroke:none"
         id="path4336"
         inkscape:connector-curvature="0" /></g><g
       id="g4338"
       transform="matrix(0.12789522,0,0,0.12789522,114.56799,21.069312)"><path
         d="m 0,0 c -9.282,-8.735 -48.815,-32.601 -101.665,-32.601 -73.196,0 -133.032,48.848 -133.032,131.347 0,98.21 68.002,150.427 134.749,150.427 77.853,0 94.733,-56.317 102.277,-87.694 -66.189,-32.536 -133.612,-50.521 -183.596,-62.153 2.339,-36.013 30.218,-104.541 108.662,-104.541 35.411,0 57.463,14.465 65.641,18.521 L 0,0 Z m -181.267,124.908 c 41.85,7.533 90.622,19.681 131.325,33.052 -8.188,36.056 -22.663,70.91 -66.822,70.91 -49.362,0 -64.503,-61.596 -64.503,-103.962"
         style="fill:#000;fill-opacity:1;fill-rule:nonzero;stroke:none"
         id="path4340"
         inkscape:connector-curvature="0" /></g><g
       id="g4342"
       transform="matrix(0.12789522,0,0,0.12789522,117.09461,3.307172)"><path
         d="m 0,0 13.929,1.738 c 20.357,2.34 25.593,6.396 25.593,42.387 l 0,240.589 c 0,56.895 0,73.164 -16.257,73.164 -2.941,0 -7.018,-0.558 -8.102,-0.558 L 2.308,353.8 0,367.772 c 16.837,5.194 62.755,20.26 83.079,20.26 4.078,-6.353 6.976,-19.702 6.976,-24.381 12.812,7.576 38.352,24.381 77.831,24.381 69.162,0 126.626,-45.285 126.626,-126.583 0,-117.397 -92.963,-155.169 -156.844,-155.169 -24.37,0 -38.277,4.099 -47.613,6.395 l 0,-68.55 c 0,-35.991 4.646,-40.047 26.097,-42.387 L 129.565,0 l 0,-12.77 L 0,-12.77 0,0 Z m 90.055,147.572 c 15.066,-9.851 26.72,-20.925 64.471,-20.925 58.152,0 86.535,47.667 86.535,122.011 0,76.125 -49.953,112.138 -102.212,112.138 -24.993,0 -39.458,-9.335 -48.794,-13.37 l 0,-199.854 z"
         style="fill:#000;fill-opacity:1;fill-rule:nonzero;stroke:none"
         id="path4344"
         inkscape:connector-curvature="0" /></g><g
       id="g4346"
       transform="matrix(0.12789522,0,0,0.12789522,159.74454,19.655711)"><path
         d="m 0,0 13.918,1.717 c 20.357,2.36 25.594,2.36 25.594,42.408 l 0,113.319 c 0,59.836 0,72.584 -16.344,72.584 -4.571,0 -9.25,-2.296 -13.896,-3.433 l -5.248,-1.782 -4.614,13.972 c 29.06,10.409 67.96,21.419 84.227,21.419 2.307,-9.829 4.014,-21.998 4.014,-37.708 8.734,9.293 33.781,37.708 63.376,37.708 18.007,0 36.625,-12.705 44.105,-17.363 -8.123,-13.949 -16.268,-22.685 -29.553,-33.136 -8.102,2.94 -39.543,12.791 -47.656,12.791 -18.619,0 -27.922,-13.972 -27.922,-22.686 l 0,-155.685 C 90.001,4.077 94.69,4.077 125.477,1.717 L 138.773,0 l 0,-12.77 L 0,-12.77 0,0 Z"
         style="fill:#000;fill-opacity:1;fill-rule:nonzero;stroke:none"
         id="path4348"
         inkscape:connector-curvature="0" /></g><g
       id="g4350"
       transform="matrix(0.12789522,0,0,0.12789522,215.53971,21.069312)"><path
         d="m 0,0 c -9.293,-8.735 -48.815,-32.601 -101.653,-32.601 -73.229,0 -133.023,48.848 -133.023,131.347 0,98.21 67.917,150.427 134.761,150.427 77.874,0 94.743,-56.317 102.266,-87.694 -66.243,-32.536 -133.655,-50.521 -183.607,-62.153 2.339,-36.013 30.229,-104.541 108.64,-104.541 35.433,0 57.507,14.465 65.663,18.521 L 0,0 Z m -181.256,124.908 c 41.818,7.533 90.633,19.681 131.271,33.052 -8.123,36.056 -22.631,70.91 -66.779,70.91 -49.362,0 -64.492,-61.596 -64.492,-103.962"
         style="fill:#000;fill-opacity:1;fill-rule:nonzero;stroke:none"
         id="path4352"
         inkscape:connector-curvature="0" /></g><g
       id="g4354"
       transform="matrix(0.12789522,0,0,0.12789522,238.12733,41.793083)"><path
         d="m 0,0 c 0,26.141 -18.597,67.992 -56.294,67.992 -22.106,0 -37.237,-15.732 -37.237,-41.272 0,-66.188 128.943,-47.023 128.943,-139.974 0,-55.2 -45.327,-81.341 -100.485,-81.341 -37.718,0 -58.065,9.872 -73.753,16.826 -8.736,26.184 -11.043,55.222 -11.043,77.842 l 15.667,0 c 11.622,-37.708 31.411,-75.46 77.908,-75.46 26.108,0 41.131,22.6 41.131,42.989 0,78.98 -128.91,51.079 -128.91,145.769 0,47.646 42.429,73.765 92.983,73.765 30.766,0 48.782,-9.25 61.541,-16.826 C 16.279,49.406 18.05,30.798 18.05,0 L 0,0 Z"
         style="fill:#000;fill-opacity:1;fill-rule:nonzero;stroke:none"
         id="path4356"
         inkscape:connector-curvature="0" /></g><g
       id="g4358"
       transform="matrix(0.12789522,0,0,0.12789522,266.28701,41.793083)"><path
         d="m 0,0 c 0,26.141 -18.586,67.992 -56.401,67.992 -22.021,0 -37.087,-15.732 -37.087,-41.272 0,-66.188 128.912,-47.023 128.912,-139.974 0,-55.2 -45.319,-81.341 -100.507,-81.341 -37.795,0 -58.151,9.872 -73.754,16.826 -8.745,26.184 -11.02,55.222 -11.02,77.842 l 15.688,0 c 11.622,-37.708 31.291,-75.46 77.768,-75.46 26.183,0 41.346,22.6 41.346,42.989 0,78.98 -129.03,51.079 -129.03,145.769 0,47.646 42.421,73.765 92.974,73.765 30.776,0 48.794,-9.25 61.563,-16.826 C 16.215,49.406 18.007,30.798 18.007,0 L 0,0 Z"
         style="fill:#000;fill-opacity:1;fill-rule:nonzero;stroke:none"
         id="path4360"
         inkscape:connector-curvature="0" /></g></g></svg>